<svg width="512" height="512" viewBox="0 0 512 512" fill="none" xmlns="http://www.w3.org/2000/svg">
  <rect width="512" height="512" rx="112" fill="#08111F"/>

  <!-- soft interior panel -->
  <rect x="72" y="72" width="368" height="368" rx="84" fill="#0F1B2E"/>

  <!-- frontier horizon layers -->
  <path d="M112 318C151 282 184 270 216 282C251 295 273 333 310 333C344 333 369 302 400 277" stroke="#E2E8F0" stroke-width="24" stroke-linecap="round" stroke-linejoin="round"/>
  <path d="M112 370C153 348 188 340 222 348C258 357 285 382 324 381C354 380 378 363 400 344" stroke="#475569" stroke-width="20" stroke-linecap="round" stroke-linejoin="round"/>

  <!-- operations route -->
  <path d="M156 246L226 210L292 236L360 158" stroke="#38BDF8" stroke-width="18" stroke-linecap="round" stroke-linejoin="round"/>

  <!-- route nodes -->
  <circle cx="156" cy="246" r="18" fill="#38BDF8"/>
  <circle cx="226" cy="210" r="14" fill="#F8FAFC"/>
  <circle cx="292" cy="236" r="14" fill="#F8FAFC"/>
  <circle cx="360" cy="158" r="20" fill="#38BDF8"/>

  <!-- north/star point -->
  <path d="M360 112L374 146L408 160L374 174L360 208L346 174L312 160L346 146L360 112Z" fill="#F8FAFC"/>
</svg>